HIERARCHY
ROOT hip
{
  OFFSET 0 90.174 2.4664
  CHANNELS 6 Xposition Yposition Zposition Zrotation Xrotation Yrotation
  JOINT abdomen
  {
    OFFSET 0 -1.186 -1.5018
    CHANNELS 6 Xposition Yposition Zposition Zrotation Xrotation Yrotation
    JOINT abdomen2
    {
      OFFSET 0 9.964 0.2134
      CHANNELS 6 Xposition Yposition Zposition Zrotation Xrotation Yrotation
      JOINT chest
      {
        OFFSET 0 13.134 -3.2573
        CHANNELS 6 Xposition Yposition Zposition Zrotation Xrotation Yrotation
        JOINT neck
        {
          OFFSET 0 20.686 -1.6905
          CHANNELS 6 Xposition Yposition Zposition Zrotation Xrotation Yrotation
          JOINT head
          {
            OFFSET 0 7.238 -0.1237
            CHANNELS 6 Xposition Yposition Zposition Zrotation Xrotation Yrotation
            End Site
            {
              OFFSET 0 0 0
            }
          }
        }
        JOINT lCollar
        {
          OFFSET 1.7069 20.075 5.0056
          CHANNELS 6 Xposition Yposition Zposition Zrotation Xrotation Yrotation
          JOINT lShldr
          {
            OFFSET 13.6458 -0.047 -4.849
            CHANNELS 6 Xposition Yposition Zposition Zrotation Xrotation Yrotation
            JOINT lForeArm
            {
              OFFSET 28.3255 -0.9759 2.2888
              CHANNELS 6 Xposition Yposition Zposition Zrotation Xrotation Yrotation
              JOINT lHand
              {
                OFFSET 22.1583 -0.53 10.8316
                CHANNELS 6 Xposition Yposition Zposition Zrotation Xrotation Yrotation
                JOINT lThumb1
                {
                  OFFSET 0.786 0.112 2.5817
                  CHANNELS 6 Xposition Yposition Zposition Zrotation Xrotation Yrotation
                  JOINT lThumb2
                  {
                    OFFSET 0.3601 -0.878 4.2331
                    CHANNELS 6 Xposition Yposition Zposition Zrotation Xrotation Yrotation
                    JOINT lThumb2_End
                    {
                      OFFSET 1.8127 -1.216 2.2227
                      CHANNELS 6 Xposition Yposition Zposition Zrotation Xrotation Yrotation
                      End Site
                      {
                        OFFSET 0.0181 -0.0122 0.0222
                      }
                    }
                  }
                }
                JOINT lCarpal1
                {
                  OFFSET 0.9571 1.114 1.7695
                  CHANNELS 6 Xposition Yposition Zposition Zrotation Xrotation Yrotation
                  JOINT lIndex1
                  {
                    OFFSET 4.1246 0.487 4.1451
                    CHANNELS 6 Xposition Yposition Zposition Zrotation Xrotation Yrotation
                    JOINT lIndex2
                    {
                      OFFSET 3.4052 -1.454 2.7682
                      CHANNELS 6 Xposition Yposition Zposition Zrotation Xrotation Yrotation
                      JOINT lIndex2_End
                      {
                        OFFSET 1.4531 -1.795 1.2713
                        CHANNELS 6 Xposition Yposition Zposition Zrotation Xrotation Yrotation
                        End Site
                        {
                          OFFSET 0.0145 -0.0179 0.0127
                        }
                      }
                    }
                  }
                  JOINT lMid1
                  {
                    OFFSET 5.6954 0.21 2.1184
                    CHANNELS 6 Xposition Yposition Zposition Zrotation Xrotation Yrotation
                    JOINT lMid2
                    {
                      OFFSET 3.9766 -1.54 2.3863
                      CHANNELS 6 Xposition Yposition Zposition Zrotation Xrotation Yrotation
                      JOINT lMid2_End
                      {
                        OFFSET 1.4042 -1.926 1.125
                        CHANNELS 6 Xposition Yposition Zposition Zrotation Xrotation Yrotation
                        End Site
                        {
                          OFFSET 0.014 -0.0193 0.0113
                        }
                      }
                    }
                  }
                }
                JOINT lCarpal2
                {
                  OFFSET 2.0956 0.66 -0.3894
                  CHANNELS 6 Xposition Yposition Zposition Zrotation Xrotation Yrotation
                  JOINT lRing1
                  {
                    OFFSET 5.0395 -0.09 2.4971
                    CHANNELS 6 Xposition Yposition Zposition Zrotation Xrotation Yrotation
                    JOINT lRing2
                    {
                      OFFSET 3.7921 -1.552 1.4806
                      CHANNELS 6 Xposition Yposition Zposition Zrotation Xrotation Yrotation
                      JOINT lRing2_End
                      {
                        OFFSET 1.4655 -1.808 0.9609
                        CHANNELS 6 Xposition Yposition Zposition Zrotation Xrotation Yrotation
                        End Site
                        {
                          OFFSET 0.0147 -0.0181 0.0096
                        }
                      }
                    }
                  }
                  JOINT lPinky1
                  {
                    OFFSET 4.9141 -1.269 0.3591
                    CHANNELS 6 Xposition Yposition Zposition Zrotation Xrotation Yrotation
                    JOINT lPinky2
                    {
                      OFFSET 3.1477 -1.685 0.8462
                      CHANNELS 6 Xposition Yposition Zposition Zrotation Xrotation Yrotation
                      JOINT lPinky2_End
                      {
                        OFFSET 0.8055 -1.585 0.7955
                        CHANNELS 6 Xposition Yposition Zposition Zrotation Xrotation Yrotation
                        End Site
                        {
                          OFFSET 0.0081 -0.0158 0.008
                        }
                      }
                    }
                  }
                }
              }
            }
          }
        }
        JOINT rCollar
        {
          OFFSET -1.7069 20.075 5.0056
          CHANNELS 6 Xposition Yposition Zposition Zrotation Xrotation Yrotation
          JOINT rShldr
          {
            OFFSET -13.6458 -0.047 -4.849
            CHANNELS 6 Xposition Yposition Zposition Zrotation Xrotation Yrotation
            JOINT rForeArm
            {
              OFFSET -28.3255 -0.9759 2.2888
              CHANNELS 6 Xposition Yposition Zposition Zrotation Xrotation Yrotation
              JOINT rHand
              {
                OFFSET -22.1583 -0.53 10.8316
                CHANNELS 6 Xposition Yposition Zposition Zrotation Xrotation Yrotation
                JOINT rThumb1
                {
                  OFFSET -0.786 0.112 2.5817
                  CHANNELS 6 Xposition Yposition Zposition Zrotation Xrotation Yrotation
                  JOINT rThumb2
                  {
                    OFFSET -0.3601 -0.878 4.2331
                    CHANNELS 6 Xposition Yposition Zposition Zrotation Xrotation Yrotation
                    JOINT rThumb2_End
                    {
                      OFFSET -1.8127 -1.216 2.2227
                      CHANNELS 6 Xposition Yposition Zposition Zrotation Xrotation Yrotation
                      End Site
                      {
                        OFFSET -0.0181 -0.0122 0.0222
                      }
                    }
                  }
                }
                JOINT rCarpal1
                {
                  OFFSET -0.9571 1.114 1.7695
                  CHANNELS 6 Xposition Yposition Zposition Zrotation Xrotation Yrotation
                  JOINT rIndex1
                  {
                    OFFSET -4.1246 0.487 4.1451
                    CHANNELS 6 Xposition Yposition Zposition Zrotation Xrotation Yrotation
                    JOINT rIndex2
                    {
                      OFFSET -3.4052 -1.454 2.7682
                      CHANNELS 6 Xposition Yposition Zposition Zrotation Xrotation Yrotation
                      JOINT rIndex2_End
                      {
                        OFFSET -1.4531 -1.795 1.2713
                        CHANNELS 6 Xposition Yposition Zposition Zrotation Xrotation Yrotation
                        End Site
                        {
                          OFFSET -0.0145 -0.018 0.0127
                        }
                      }
                    }
                  }
                  JOINT rMid1
                  {
                    OFFSET -5.6954 0.21 2.1184
                    CHANNELS 6 Xposition Yposition Zposition Zrotation Xrotation Yrotation
                    JOINT rMid2
                    {
                      OFFSET -3.9766 -1.54 2.3863
                      CHANNELS 6 Xposition Yposition Zposition Zrotation Xrotation Yrotation
                      JOINT rMid2_End
                      {
                        OFFSET -1.4042 -1.926 1.125
                        CHANNELS 6 Xposition Yposition Zposition Zrotation Xrotation Yrotation
                        End Site
                        {
                          OFFSET -0.014 -0.0193 0.0113
                        }
                      }
                    }
                  }
                }
                JOINT rCarpal2
                {
                  OFFSET -2.0956 0.66 -0.3894
                  CHANNELS 6 Xposition Yposition Zposition Zrotation Xrotation Yrotation
                  JOINT rRing1
                  {
                    OFFSET -5.0395 -0.09 2.4971
                    CHANNELS 6 Xposition Yposition Zposition Zrotation Xrotation Yrotation
                    JOINT rRing2
                    {
                      OFFSET -3.7921 -1.552 1.4806
                      CHANNELS 6 Xposition Yposition Zposition Zrotation Xrotation Yrotation
                      JOINT rRing2_End
                      {
                        OFFSET -1.4655 -1.808 0.9609
                        CHANNELS 6 Xposition Yposition Zposition Zrotation Xrotation Yrotation
                        End Site
                        {
                          OFFSET -0.0147 -0.0181 0.0096
                        }
                      }
                    }
                  }
                  JOINT rPinky1
                  {
                    OFFSET -4.9141 -1.269 0.3592
                    CHANNELS 6 Xposition Yposition Zposition Zrotation Xrotation Yrotation
                    JOINT rPinky2
                    {
                      OFFSET -3.1477 -1.685 0.8462
                      CHANNELS 6 Xposition Yposition Zposition Zrotation Xrotation Yrotation
                      JOINT rPinky2_End
                      {
                        OFFSET -0.8055 -1.585 0.7955
                        CHANNELS 6 Xposition Yposition Zposition Zrotation Xrotation Yrotation
                        End Site
                        {
                          OFFSET -0.0081 -0.0158 0.008
                        }
                      }
                    }
                  }
                }
              }
            }
          }
        }
      }
    }
  }
  JOINT lThigh
  {
    OFFSET 8.367 -8.2066 0.5982
    CHANNELS 6 Xposition Yposition Zposition Zrotation Xrotation Yrotation
    JOINT lShin
    {
      OFFSET 2.1923 -43.463 -0.4932
      CHANNELS 6 Xposition Yposition Zposition Zrotation Xrotation Yrotation
      JOINT lFoot
      {
        OFFSET 0.7333 -45.8593 -2.6451
        CHANNELS 6 Xposition Yposition Zposition Zrotation Xrotation Yrotation
        End Site
        {
          OFFSET 2.6618 -4.2699 12.3931
        }
      }
    }
  }
  JOINT rThigh
  {
    OFFSET -8.367 -8.2066 0.5982
    CHANNELS 6 Xposition Yposition Zposition Zrotation Xrotation Yrotation
    JOINT rShin
    {
      OFFSET -2.1923 -43.463 -0.4931
      CHANNELS 6 Xposition Yposition Zposition Zrotation Xrotation Yrotation
      JOINT rFoot
      {
        OFFSET -0.7333 -45.8593 -2.6451
        CHANNELS 6 Xposition Yposition Zposition Zrotation Xrotation Yrotation
        End Site
        {
          OFFSET -2.6618 -4.2699 12.3931
        }
      }
    }
  }
}
MOTION
Frames:	4
Frame Time:	0.0333333
-0.537412 82.2663 8.17483 -0 -0.448445 -0 0 -1.186 -1.5018 -0.643458 1.86116 -0.21733 0 9.964 0.2134 -1.28086 3.72464 -0.414051 0 13.134 -3.2573 -1.28086 3.72464 -0.414051 0 20.686 -1.6905 7.1451 9.32257 -1.20615 0 7.238 -0.1237 -5.34913e-007 11.1631 1.33612e-007 1.7069 20.075 5.0056 4.59525 3.47613 -5.17457 13.6458 -0.047 -4.849 -51.313 -1.61961 -9.02028 28.3255 -0.9759 2.2888 -15.9398 28.8973 -53.076 22.1583 -0.53 10.8316 -7.91355 2.56395 7.17366 0.786 0.112 2.5817 -3.89047e-007 -2.10284e-006 2.05013e-006 0.3601 -0.878 4.2331 4.24746e-007 -5.12532e-007 -5.25711e-007 1.8127 -1.216 2.2227 4.20568e-006 -7.78094e-007 3.39796e-006 0.9571 1.114 1.7695 -3.18055e-015 -6.36111e-015 -1.59028e-015 4.1246 0.487 4.1451 -3.89047e-007 -2.10284e-006 2.05013e-006 3.4052 -1.454 2.7682 4.24746e-007 -5.12532e-007 -5.25711e-007 1.4531 -1.795 1.2713 4.20568e-006 -7.78094e-007 3.39796e-006 5.6954 0.21 2.1184 -3.89047e-007 -2.10284e-006 2.05013e-006 3.9766 -1.54 2.3863 4.24746e-007 -5.12532e-007 -5.25711e-007 1.4042 -1.926 1.125 4.20568e-006 -7.78094e-007 3.39796e-006 2.0956 0.66 -0.3894 -3.18055e-015 -6.36111e-015 -1.59028e-015 5.0395 -0.09 2.4971 -3.89047e-007 -2.10284e-006 2.05013e-006 3.7921 -1.552 1.4806 4.24746e-007 -5.12532e-007 -5.25711e-007 1.4655 -1.808 0.9609 4.20568e-006 -7.78094e-007 3.39796e-006 4.9141 -1.269 0.3591 -3.89047e-007 -2.10284e-006 2.05013e-006 3.1477 -1.685 0.8462 4.24746e-007 -5.12532e-007 -5.25711e-007 0.8055 -1.585 0.7955 4.20568e-006 -7.78094e-007 3.39796e-006 -1.7069 20.075 5.0056 -4.85906 3.18988 4.89181 -13.6458 -0.047 -4.849 51.2609 -1.70484 9.88133 -28.3255 -0.9759 2.2888 15.0652 27.0199 51.7574 -22.1583 -0.53 10.8316 8.99592 3.40314 -6.49974 -0.786 0.112 2.5817 -8.23728e-007 -1.11253e-006 9.74154e-007 -0.3601 -0.878 4.2331 6.36111e-015 -3.18055e-015 -0 -1.8127 -1.216 2.2227 -8.23728e-007 -1.11253e-006 9.74154e-007 -0.9571 1.114 1.7695 9.54166e-015 3.18055e-015 -3.18055e-015 -4.1246 0.487 4.1451 -8.23728e-007 -1.11253e-006 9.74154e-007 -3.4052 -1.454 2.7682 3.18055e-015 6.36111e-015 -4.77083e-015 -1.4531 -1.795 1.2713 -8.23728e-007 -1.11253e-006 9.74154e-007 -5.6954 0.21 2.1184 -8.23728e-007 -1.11253e-006 9.74154e-007 -3.9766 -1.54 2.3863 3.18055e-015 6.36111e-015 -4.77083e-015 -1.4042 -1.926 1.125 -8.23728e-007 -1.11253e-006 9.74154e-007 -2.0956 0.66 -0.3894 9.54166e-015 3.18055e-015 -3.18055e-015 -5.0395 -0.09 2.4971 -8.23728e-007 -1.11253e-006 9.74154e-007 -3.7921 -1.552 1.4806 3.18055e-015 6.36111e-015 -4.77083e-015 -1.4655 -1.808 0.9609 -8.23728e-007 -1.11253e-006 9.74154e-007 -4.9141 -1.269 0.3592 -8.23728e-007 -1.11253e-006 9.74154e-007 -3.1477 -1.685 0.8462 3.18055e-015 6.36111e-015 -4.77083e-015 -0.8055 -1.585 0.7955 -8.23728e-007 -1.11253e-006 9.74154e-007 8.367 -8.2066 0.5982 21.2622 -28.3838 35.342 2.1923 -43.463 -0.4932 134.732 52.7818 -134.431 0.7333 -45.8593 -2.6451 -5.77367 36.4263 -13.4133 -8.367 -8.2066 0.5982 -24.7677 -30.1215 -36.3066 -2.1923 -43.463 -0.4931 -134.52 52.9176 134.275 -0.7333 -45.8593 -2.6451 7.50689 35.5346 13.8493 
-0.536818 82.2534 7.95438 0 0.341131 -0 0 -1.186 -1.5018 -0.642492 1.58553 -0.220139 0 9.964 0.2134 -1.27962 3.17342 -0.422713 4.44089e-016 13.134 -3.2573 -1.27962 3.17342 -0.422713 0 20.686 -1.6905 7.19913 9.39068 -1.2196 0 7.238 -0.1237 6.66887e-007 11.2454 -5.11908e-008 1.7069 20.075 5.0056 4.49519 4.05289 -5.03927 13.6458 -0.047 -4.849 -51.3131 -1.61959 -9.02029 28.3255 -0.9759 2.2888 -15.9748 29.0117 -53.3687 22.1583 -0.53 10.8316 -7.87189 2.74295 7.35207 0.786 0.112 2.5817 4.25778e-007 -5.12194e-007 -5.25287e-007 0.3601 -0.878 4.2331 4.25778e-007 -5.12194e-007 -5.25287e-007 1.8127 -1.216 2.2227 4.25778e-007 -5.12194e-007 -5.25287e-007 0.9571 1.114 1.7695 8.82781e-032 3.18055e-015 -1.59028e-015 4.1246 0.487 4.1451 4.25778e-007 -5.12194e-007 -5.25287e-007 3.4052 -1.454 2.7682 4.25778e-007 -5.12194e-007 -5.25287e-007 1.4531 -1.795 1.2713 4.25778e-007 -5.12194e-007 -5.25287e-007 5.6954 0.21 2.1184 4.25778e-007 -5.12194e-007 -5.25287e-007 3.9766 -1.54 2.3863 4.25778e-007 -5.12194e-007 -5.25287e-007 1.4042 -1.926 1.125 4.25778e-007 -5.12194e-007 -5.25287e-007 2.0956 0.66 -0.3894 8.82781e-032 3.18055e-015 -1.59028e-015 5.0395 -0.09 2.4971 4.25778e-007 -5.12194e-007 -5.25287e-007 3.7921 -1.552 1.4806 4.25778e-007 -5.12194e-007 -5.25287e-007 1.4655 -1.808 0.9609 4.25778e-007 -5.12194e-007 -5.25287e-007 4.9141 -1.269 0.3591 4.25778e-007 -5.12194e-007 -5.25287e-007 3.1477 -1.685 0.8462 4.25778e-007 -5.12194e-007 -5.25287e-007 0.8055 -1.585 0.7955 4.25778e-007 -5.12194e-007 -5.25287e-007 -1.7069 20.075 5.0056 -4.7657 3.75935 4.73868 -13.6458 -0.047 -4.849 51.2609 -1.70485 9.88133 -28.3255 -0.9759 2.2888 15.1076 27.1217 52.0323 -22.1583 -0.53 10.8316 8.98434 3.5957 -6.64996 -0.786 0.112 2.5817 8.25851e-007 1.11173e-006 -9.73463e-007 -0.3601 -0.878 4.2331 2.58464e-006 -1.02281e-006 3.21129e-006 -1.8127 -1.216 2.2227 8.25851e-007 1.11173e-006 -9.73463e-007 -0.9571 1.114 1.7695 0 9.54166e-015 -0 -4.1246 0.487 4.1451 8.25851e-007 1.11173e-006 -9.73463e-007 -3.4052 -1.454 2.7682 2.58464e-006 -1.02281e-006 3.21129e-006 -1.4531 -1.795 1.2713 8.25851e-007 1.11173e-006 -9.73463e-007 -5.6954 0.21 2.1184 8.25851e-007 1.11173e-006 -9.73463e-007 -3.9766 -1.54 2.3863 2.58464e-006 -1.02281e-006 3.21129e-006 -1.4042 -1.926 1.125 8.25851e-007 1.11173e-006 -9.73463e-007 -2.0956 0.66 -0.3894 0 9.54166e-015 -0 -5.0395 -0.09 2.4971 8.25851e-007 1.11173e-006 -9.73463e-007 -3.7921 -1.552 1.4806 2.58464e-006 -1.02281e-006 3.21129e-006 -1.4655 -1.808 0.9609 8.25851e-007 1.11173e-006 -9.73463e-007 -4.9141 -1.269 0.3592 8.25851e-007 1.11173e-006 -9.73463e-007 -3.1477 -1.685 0.8462 2.58464e-006 -1.02281e-006 3.21129e-006 -0.8055 -1.585 0.7955 8.25851e-007 1.11173e-006 -9.73463e-007 8.367 -8.2066 0.5982 21.1351 -29.6413 35.4574 2.1923 -43.463 -0.4932 135.109 52.5618 -134.674 0.7333 -45.8593 -2.6451 -6.16625 36.5475 -13.1679 -8.367 -8.2066 0.5982 -24.6542 -31.3657 -36.4473 -2.1923 -43.463 -0.4931 -134.882 52.7088 134.506 -0.7333 -45.8593 -2.6451 7.93072 35.6563 13.579 
-0.536263 82.2394 7.73333 0 1.13053 -0 0 -1.186 -1.5018 -0.641431 1.31036 -0.222902 0 9.964 0.2134 -1.27826 2.62319 -0.431283 -4.44089e-016 13.134 -3.2573 -1.27826 2.62319 -0.431283 0 20.686 -1.6905 7.25335 9.45918 -1.23311 0 7.238 -0.1237 -1.25498e-007 11.3277 -2.51592e-008 1.7069 20.075 5.0056 4.39372 4.62924 -4.90285 13.6458 -0.047 -4.849 -51.313 -1.6196 -9.02029 28.3255 -0.9759 2.2888 -16.0091 29.1263 -53.6617 22.1583 -0.53 10.8316 -7.83076 2.92206 7.53038 0.786 0.112 2.5817 -6.36111e-015 -6.36111e-015 1.59028e-015 0.3601 -0.878 4.2331 4.26805e-007 -5.11855e-007 -5.24867e-007 1.8127 -1.216 2.2227 3.18055e-015 3.18055e-015 3.18055e-015 0.9571 1.114 1.7695 -0 -3.18055e-015 -0 4.1246 0.487 4.1451 -3.18055e-015 -3.18055e-015 6.36111e-015 3.4052 -1.454 2.7682 4.26805e-007 -5.11855e-007 -5.24867e-007 1.4531 -1.795 1.2713 3.18055e-015 0 1.59028e-015 5.6954 0.21 2.1184 -3.18055e-015 -3.18055e-015 6.36111e-015 3.9766 -1.54 2.3863 4.26805e-007 -5.11855e-007 -5.24867e-007 1.4042 -1.926 1.125 3.18055e-015 0 1.59028e-015 2.0956 0.66 -0.3894 -0 -3.18055e-015 -0 5.0395 -0.09 2.4971 -3.18055e-015 -3.18055e-015 6.36111e-015 3.7921 -1.552 1.4806 4.26805e-007 -5.11855e-007 -5.24867e-007 1.4655 -1.808 0.9609 3.18055e-015 0 1.59028e-015 4.9141 -1.269 0.3591 -3.18055e-015 -3.18055e-015 6.36111e-015 3.1477 -1.685 0.8462 4.26805e-007 -5.11855e-007 -5.24867e-007 0.8055 -1.585 0.7955 3.18055e-015 0 1.59028e-015 -1.7069 20.075 5.0056 -4.67073 4.3284 4.58454 -13.6458 -0.047 -4.849 51.2609 -1.70485 9.88132 -28.3255 -0.9759 2.2888 15.1495 27.2237 52.3073 -22.1583 -0.53 10.8316 8.9733 3.78829 -6.80012 -0.786 0.112 2.5817 8.27972e-007 1.1109e-006 -9.72794e-007 -0.3601 -0.878 4.2331 8.27972e-007 1.1109e-006 -9.72794e-007 -1.8127 -1.216 2.2227 -8.27972e-007 -1.1109e-006 9.72794e-007 -0.9571 1.114 1.7695 -3.18055e-015 -3.18055e-015 4.77083e-015 -4.1246 0.487 4.1451 8.27972e-007 1.1109e-006 -9.72794e-007 -3.4052 -1.454 2.7682 8.27972e-007 1.1109e-006 -9.72794e-007 -1.4531 -1.795 1.2713 -8.27972e-007 -1.1109e-006 9.72794e-007 -5.6954 0.21 2.1184 8.27972e-007 1.1109e-006 -9.72794e-007 -3.9766 -1.54 2.3863 8.27972e-007 1.1109e-006 -9.72794e-007 -1.4042 -1.926 1.125 -8.27972e-007 -1.1109e-006 9.72794e-007 -2.0956 0.66 -0.3894 -3.18055e-015 -3.18055e-015 4.77083e-015 -5.0395 -0.09 2.4971 8.27972e-007 1.1109e-006 -9.72794e-007 -3.7921 -1.552 1.4806 8.27972e-007 1.1109e-006 -9.72794e-007 -1.4655 -1.808 0.9609 -8.27972e-007 -1.1109e-006 9.72794e-007 -4.9141 -1.269 0.3592 8.27972e-007 1.1109e-006 -9.72794e-007 -3.1477 -1.685 0.8462 8.27972e-007 1.1109e-006 -9.72794e-007 -0.8055 -1.585 0.7955 -8.27972e-007 -1.1109e-006 9.72794e-007 8.367 -8.2066 0.5982 21.0085 -30.899 35.5703 2.1923 -43.463 -0.4932 135.481 52.3407 -134.912 0.7333 -45.8593 -2.6451 -6.56076 36.6682 -12.921 -8.367 -8.2066 0.5982 -24.542 -32.61 -36.5863 -2.1923 -43.463 -0.4931 -135.24 52.4991 134.733 -0.7333 -45.8593 -2.6451 8.35654 35.7772 13.3069 
-0.535747 82.2244 7.51167 0 1.91968 -0 0 -1.186 -1.5018 -0.640257 1.03592 -0.225614 -2.22045e-016 9.964 0.2134 -1.27674 2.07429 -0.439742 0 13.134 -3.2573 -1.27674 2.07429 -0.439743 8.88178e-016 20.686 -1.6905 7.30745 9.52726 -1.24671 0 7.238 -0.1237 -5.39302e-007 11.4099 -1.91141e-007 1.7069 20.075 5.0056 4.29076 5.20534 -4.76533 13.6458 -0.047 -4.849 -51.313 -1.61959 -9.02029 28.3255 -0.9759 2.2888 -16.0428 29.2411 -53.955 22.1583 -0.53 10.8316 -7.79022 3.10128 7.70859 0.786 0.112 2.5817 -4.27822e-007 5.1151e-007 5.24455e-007 0.3601 -0.878 4.2331 -4.27822e-007 5.1151e-007 5.24455e-007 1.8127 -1.216 2.2227 -4.27822e-007 5.1151e-007 5.24455e-007 0.9571 1.114 1.7695 3.18055e-015 -3.18055e-015 -0 4.1246 0.487 4.1451 -4.27822e-007 5.1151e-007 5.24455e-007 3.4052 -1.454 2.7682 -4.27822e-007 5.1151e-007 5.24455e-007 1.4531 -1.795 1.2713 -4.27822e-007 5.1151e-007 5.24455e-007 5.6954 0.21 2.1184 -4.27822e-007 5.1151e-007 5.24455e-007 3.9766 -1.54 2.3863 -4.27822e-007 5.1151e-007 5.24455e-007 1.4042 -1.926 1.125 -4.27822e-007 5.1151e-007 5.24455e-007 2.0956 0.66 -0.3894 3.18055e-015 -3.18055e-015 -0 5.0395 -0.09 2.4971 -4.27822e-007 5.1151e-007 5.24455e-007 3.7921 -1.552 1.4806 -4.27822e-007 5.1151e-007 5.24455e-007 1.4655 -1.808 0.9609 -4.27822e-007 5.1151e-007 5.24455e-007 4.9141 -1.269 0.3591 -4.27822e-007 5.1151e-007 5.24455e-007 3.1477 -1.685 0.8462 -4.27822e-007 5.1151e-007 5.24455e-007 0.8055 -1.585 0.7955 -4.27822e-007 5.1151e-007 5.24455e-007 -1.7069 20.075 5.0056 -4.57422 4.89719 4.42934 -13.6458 -0.047 -4.849 51.2609 -1.70485 9.88133 -28.3255 -0.9759 2.2888 15.191 27.3258 52.5825 -22.1583 -0.53 10.8316 8.96273 3.98092 -6.95029 -0.786 0.112 2.5817 9.54166e-015 -3.18055e-015 1.59028e-015 -0.3601 -0.878 4.2331 6.36111e-015 -6.36111e-015 1.59028e-015 -1.8127 -1.216 2.2227 -8.30083e-007 -1.11005e-006 9.72154e-007 -0.9571 1.114 1.7695 3.18055e-015 6.36111e-015 1.59028e-015 -4.1246 0.487 4.1451 -3.18055e-015 0 -0 -3.4052 -1.454 2.7682 6.36111e-015 -6.36111e-015 -3.18055e-015 -1.4531 -1.795 1.2713 -8.30083e-007 -1.11005e-006 9.72154e-007 -5.6954 0.21 2.1184 -3.18055e-015 0 -0 -3.9766 -1.54 2.3863 6.36111e-015 -6.36111e-015 -3.18055e-015 -1.4042 -1.926 1.125 -8.30083e-007 -1.11005e-006 9.72154e-007 -2.0956 0.66 -0.3894 3.18055e-015 6.36111e-015 1.59028e-015 -5.0395 -0.09 2.4971 -3.18055e-015 0 -0 -3.7921 -1.552 1.4806 6.36111e-015 -6.36111e-015 -3.18055e-015 -1.4655 -1.808 0.9609 -8.30083e-007 -1.11005e-006 9.72154e-007 -4.9141 -1.269 0.3592 -3.18055e-015 0 -0 -3.1477 -1.685 0.8462 6.36111e-015 -6.36111e-015 -3.18055e-015 -0.8055 -1.585 0.7955 -8.30083e-007 -1.11005e-006 9.72154e-007 8.367 -8.2066 0.5982 20.8822 -32.1567 35.6807 2.1923 -43.463 -0.4932 135.85 52.1186 -135.147 0.7333 -45.8593 -2.6451 -6.95725 36.7883 -12.6723 -8.367 -8.2066 0.5982 -24.4311 -33.8542 -36.7236 -2.1923 -43.463 -0.4931 -135.594 52.2884 134.956 -0.7333 -45.8593 -2.6451 8.7843 35.8971 13.0331 
